<?xml version="1.0" encoding="utf-8"?>
<!-- Generator: Adobe Illustrator 15.0.0, SVG Export Plug-In . SVG Version: 6.00 Build 0)  -->
<!DOCTYPE svg PUBLIC "-//W3C//DTD SVG 1.1//EN" "http://www.w3.org/Graphics/SVG/1.1/DTD/svg11.dtd">
<svg version="1.1" id="Layer_1" xmlns="http://www.w3.org/2000/svg" xmlns:xlink="http://www.w3.org/1999/xlink" x="0px" y="0px"
	 width="283.46px" height="123.59px" viewBox="0 0 283.46 123.59" enable-background="new 0 0 283.46 123.59" xml:space="preserve">
<g>
	<path fill-rule="evenodd" clip-rule="evenodd" fill="#1C64BE" d="M77.451,118.903c-3.937,0-7.875,0-11.812,0
		c-33.39-4.593-51.768-23.078-55.558-55.065c0-1.756,0-3.51,0-5.266c2.925-30.349,23.25-51.746,56.433-53.448
		c39.481-2.022,62.98,24.606,63.87,56.688C131.254,93.195,110.96,114.533,77.451,118.903z M38.516,61.813
		c0.103,11.746,7.477,23.269,15.75,27.935c25.837,14.578,56.881-9.287,48.559-37.655C99.009,39.094,86.089,27.784,68.701,29.42
		C49.863,31.19,38.356,43.317,38.516,61.813z"/>
	<path fill-rule="evenodd" clip-rule="evenodd" fill="#1C64BE" d="M263.373,5.936c0,0.134,0,0.27,0,0.404
		c-0.729,17.816-0.729,38.466,0,56.282c0,0.404,0,0.81,0,1.216c0.354,33.123-15.129,51.591-46.81,55.065c-3.646,0-7.29,0-10.936,0
		c-28.069-2.4-38.281-19.23-51.622-35.631c-6.935-8.527-13.569-16.791-19.247-24.7c8.599-1.297,22.675,3.57,33.247-2.43
		c8.792-4.987,10.317-20.353,0-25.104c-10.06-4.633-26.973,0.127-40.684-1.619c-4.363-10.27-11.373-18.087-20.561-23.89
		c21.26,1.611,41.21-1.636,62.557,0.405c19.859,1.897,33.804,15.883,33.687,36.036c-0.095,16.06-10.187,29.29-24.936,32.797
		c5.401,6.11,8.571,13.285,15.312,17.412c8.56,5.238,22.479,5.302,30.62,1.213c20.773-10.425,9.25-60.227,12.25-87.863
		C245.152,5.794,255.198,5,263.373,5.936z"/>
</g>
</svg>
